<svg width="20" height="22" viewBox="0 0 20 22" fill="none" xmlns="http://www.w3.org/2000/svg">
<path d="M20 16.5504V18.8036C20 20.5682 15.345 22 10 22C4.656 22 0 20.5682 0 18.8036V16.5504C2.418 18.1436 7.005 18.6184 10 18.6184C13.006 18.6184 17.588 18.139 20 16.5504ZM10 13.4255C6.994 13.4255 2.412 12.9461 0 11.3575V13.5887C0 15.3542 4.656 16.7851 10 16.7851C15.345 16.7851 20 15.3533 20 13.5887V11.3575C17.582 12.9507 12.995 13.4255 10 13.4255ZM10 0C4.656 0 0 1.43183 0 3.19733C0 4.96283 4.656 6.39375 10 6.39375C15.345 6.39375 20 4.96192 20 3.19733C20 1.43183 15.345 0 10 0ZM10 8.22708C6.994 8.22708 2.412 7.74767 0 6.15908V8.39575C0 10.1613 4.656 11.5922 10 11.5922C15.345 11.5922 20 10.1603 20 8.39575V6.15908C17.582 7.75225 12.995 8.22708 10 8.22708Z" fill="#618264"/>
</svg>
