<svg width="22" height="22" viewBox="0 0 22 22" fill="none" xmlns="http://www.w3.org/2000/svg">
<path opacity="0.4" d="M11 3.55859H10.9911C7.20813 3.55859 3.80081 6.23892 1.88699 10.7332C1.81544 10.9047 1.81544 11.1032 1.88699 11.2657C2.50406 12.7177 3.28211 13.9821 4.17642 15.0289L7.48536 11.6898C7.44959 11.4732 7.42276 11.2386 7.42276 11.0039C7.42276 9.00949 9.02357 7.39407 11 7.39407C11.2325 7.39407 11.465 7.42115 11.6797 7.45725L14.6667 4.44211C13.5219 3.86543 12.2789 3.55859 11 3.55859ZM20.113 10.7332C19.2902 8.80192 18.1902 7.19553 16.8935 6.00428L13.9512 8.97339C14.3358 9.55097 14.5683 10.2549 14.5683 11.0039C14.5683 12.9894 12.9675 14.6048 11 14.6048C10.2577 14.6048 9.56016 14.3692 8.9878 13.9821L6.15284 16.8429C7.61056 17.8807 9.26504 18.4493 10.9911 18.4493H11C14.7919 18.4493 18.1992 15.7599 20.113 11.2657C20.1845 11.1032 20.1845 10.9047 20.113 10.7332Z" fill="#618264"/>
<path d="M18.5213 3.40478C18.7896 3.6665 18.7896 4.09968 18.5213 4.3614L16.8937 6.00388L13.9514 8.973L12.6551 10.2806L12.9767 9.95705C13.1377 10.2639 13.2271 10.6249 13.2271 11.0039C13.2271 12.2403 12.2255 13.251 11.0003 13.251C10.625 13.251 10.2676 13.161 9.96376 12.9988L4.41807 18.5942C4.28392 18.7287 4.114 18.7918 3.94408 18.7918C3.77416 18.7918 3.5953 18.7287 3.4701 18.5942C3.24652 18.3686 3.21075 18.0067 3.38961 17.745L3.41644 17.7089L13.0124 8.02631L15.8473 5.16549L16.6433 4.3614C16.6612 4.34335 16.679 4.3253 16.688 4.30725C16.7059 4.2892 16.7238 4.27115 16.7327 4.2531L17.5734 3.40478C17.8416 3.14307 18.262 3.14307 18.5213 3.40478Z" fill="#618264"/>
</svg>
