<svg width="26" height="30" viewBox="0 0 26 30" fill="none" xmlns="http://www.w3.org/2000/svg">
<path d="M20 2.85714H15.4571C14.8571 1.2 13.2857 0 11.4286 0C9.57143 0 8 1.2 7.4 2.85714H2.85714C1.28571 2.85714 0 4.14286 0 5.71429V27.1429C0 28.7143 1.28571 30 2.85714 30H11.5857C10.7429 29.1857 10.0571 28.2143 9.55714 27.1429H2.85714V5.71429H5.71429V7.14286C5.71429 8.71429 7 10 8.57143 10H14.2857C15.8571 10 17.1429 8.71429 17.1429 7.14286V5.71429H20V12.9714C21.0143 13.1143 21.9714 13.4143 22.8571 13.8286V5.71429C22.8571 4.14286 21.5714 2.85714 20 2.85714ZM11.4286 5.71429C10.6429 5.71429 10 5.07143 10 4.28571C10 3.5 10.6429 2.85714 11.4286 2.85714C12.2143 2.85714 12.8571 3.5 12.8571 4.28571C12.8571 5.07143 12.2143 5.71429 11.4286 5.71429ZM18.5714 15.7143C14.6286 15.7143 11.4286 18.9143 11.4286 22.8571C11.4286 26.8 14.6286 30 18.5714 30C22.5143 30 25.7143 26.8 25.7143 22.8571C25.7143 18.9143 22.5143 15.7143 18.5714 15.7143ZM20.4143 25.7143L18.0571 23.3571C17.9286 23.2286 17.8429 23.0429 17.8429 22.8571V19.3C17.8429 18.9 18.1571 18.5857 18.5571 18.5857C18.9571 18.5857 19.2714 18.9 19.2714 19.3V22.5714L21.4143 24.7143C21.7 25 21.7 25.4429 21.4143 25.7286C21.1429 26 20.7 26 20.4143 25.7143Z" fill="#C8E8C8"/>
</svg>
