<svg width="24" height="28" viewBox="0 0 24 28" fill="none" xmlns="http://www.w3.org/2000/svg">
<path d="M18.6667 2.66667H14.4267C13.8667 1.12 12.4 0 10.6667 0C8.93333 0 7.46667 1.12 6.90667 2.66667H2.66667C1.2 2.66667 0 3.86667 0 5.33333V25.3333C0 26.8 1.2 28 2.66667 28H10.8133C10.0267 27.24 9.38667 26.3333 8.92 25.3333H2.66667V5.33333H5.33333V6.66667C5.33333 8.13333 6.53333 9.33333 8 9.33333H13.3333C14.8 9.33333 16 8.13333 16 6.66667V5.33333H18.6667V12.1067C19.6133 12.24 20.5067 12.52 21.3333 12.9067V5.33333C21.3333 3.86667 20.1333 2.66667 18.6667 2.66667ZM10.6667 5.33333C9.93333 5.33333 9.33333 4.73333 9.33333 4C9.33333 3.26667 9.93333 2.66667 10.6667 2.66667C11.4 2.66667 12 3.26667 12 4C12 4.73333 11.4 5.33333 10.6667 5.33333ZM17.3333 14.6667C13.6533 14.6667 10.6667 17.6533 10.6667 21.3333C10.6667 25.0133 13.6533 28 17.3333 28C21.0133 28 24 25.0133 24 21.3333C24 17.6533 21.0133 14.6667 17.3333 14.6667ZM19.0533 24L16.8533 21.8C16.7333 21.68 16.6533 21.5067 16.6533 21.3333V18.0133C16.6533 17.64 16.9467 17.3467 17.32 17.3467C17.6933 17.3467 17.9867 17.64 17.9867 18.0133V21.0667L19.9867 23.0667C20.2533 23.3333 20.2533 23.7467 19.9867 24.0133C19.7333 24.2667 19.32 24.2667 19.0533 24Z" fill="#57755A"/>
</svg>
