<svg width="38" height="38" viewBox="0 0 38 38" fill="none" xmlns="http://www.w3.org/2000/svg">
<g clip-path="url(#clip0_225_111)">
<path d="M15.8333 30.0835V22.1668H22.1667V30.0835C22.1667 30.9543 22.8792 31.6668 23.75 31.6668H28.5C29.3708 31.6668 30.0833 30.9543 30.0833 30.0835V19.0001H32.775C33.5033 19.0001 33.8517 18.0976 33.2975 17.6226L20.0608 5.70014C19.4592 5.1618 18.5408 5.1618 17.9392 5.70014L4.7025 17.6226C4.16417 18.0976 4.49667 19.0001 5.225 19.0001H7.91667V30.0835C7.91667 30.9543 8.62917 31.6668 9.5 31.6668H14.25C15.1208 31.6668 15.8333 30.9543 15.8333 30.0835Z" fill="#C8E8C8"/>
</g>
<defs>
<clipPath id="clip0_225_111">
<rect width="38" height="38" fill="white"/>
</clipPath>
</defs>
</svg>
