<svg width="40" height="40" viewBox="0 0 40 40" fill="none" xmlns="http://www.w3.org/2000/svg">
<g clip-path="url(#clip0_154_675)">
<path d="M31.6667 4.99984H24.7C24 3.0665 22.1667 1.6665 20 1.6665C17.8333 1.6665 16 3.0665 15.3 4.99984H8.33333C6.5 4.99984 5 6.49984 5 8.33317V31.6665C5 33.4998 6.5 34.9998 8.33333 34.9998H31.6667C33.5 34.9998 35 33.4998 35 31.6665V8.33317C35 6.49984 33.5 4.99984 31.6667 4.99984ZM20 4.99984C20.9167 4.99984 21.6667 5.74984 21.6667 6.6665C21.6667 7.58317 20.9167 8.33317 20 8.33317C19.0833 8.33317 18.3333 7.58317 18.3333 6.6665C18.3333 5.74984 19.0833 4.99984 20 4.99984ZM21.6667 28.3332H13.3333C12.4167 28.3332 11.6667 27.5832 11.6667 26.6665C11.6667 25.7498 12.4167 24.9998 13.3333 24.9998H21.6667C22.5833 24.9998 23.3333 25.7498 23.3333 26.6665C23.3333 27.5832 22.5833 28.3332 21.6667 28.3332ZM26.6667 21.6665H13.3333C12.4167 21.6665 11.6667 20.9165 11.6667 19.9998C11.6667 19.0832 12.4167 18.3332 13.3333 18.3332H26.6667C27.5833 18.3332 28.3333 19.0832 28.3333 19.9998C28.3333 20.9165 27.5833 21.6665 26.6667 21.6665ZM26.6667 14.9998H13.3333C12.4167 14.9998 11.6667 14.2498 11.6667 13.3332C11.6667 12.4165 12.4167 11.6665 13.3333 11.6665H26.6667C27.5833 11.6665 28.3333 12.4165 28.3333 13.3332C28.3333 14.2498 27.5833 14.9998 26.6667 14.9998Z" fill="#57755A"/>
</g>
<defs>
<clipPath id="clip0_154_675">
<rect width="40" height="40" fill="white"/>
</clipPath>
</defs>
</svg>
