<svg width="28" height="25" viewBox="0 0 28 25" fill="none" xmlns="http://www.w3.org/2000/svg">
<path d="M18.6667 17.7085V14.5835H10.5V10.4168H18.6667V7.29183L24.5 12.5002L18.6667 17.7085ZM16.3333 2.0835C16.9522 2.0835 17.5457 2.30299 17.9832 2.69369C18.4208 3.08439 18.6667 3.61429 18.6667 4.16683V6.25016H16.3333V4.16683H5.83333V20.8335H16.3333V18.7502H18.6667V20.8335C18.6667 21.386 18.4208 21.9159 17.9832 22.3066C17.5457 22.6973 16.9522 22.9168 16.3333 22.9168H5.83333C5.21449 22.9168 4.621 22.6973 4.18342 22.3066C3.74583 21.9159 3.5 21.386 3.5 20.8335V4.16683C3.5 3.61429 3.74583 3.08439 4.18342 2.69369C4.621 2.30299 5.21449 2.0835 5.83333 2.0835H16.3333Z" fill="#B23E36"/>
</svg>
