<svg width="36" height="36" viewBox="0 0 36 36" fill="none" xmlns="http://www.w3.org/2000/svg">
<g clip-path="url(#clip0_254_111)">
<path d="M18 33C19.65 33 21 31.65 21 30H15C15 31.65 16.335 33 18 33ZM27 24V16.5C27 11.895 24.54 8.04 20.25 7.02V6C20.25 4.755 19.245 3.75 18 3.75C16.755 3.75 15.75 4.755 15.75 6V7.02C11.445 8.04 9.00002 11.88 9.00002 16.5V24L7.06502 25.935C6.12002 26.88 6.78002 28.5 8.11502 28.5H27.87C29.205 28.5 29.88 26.88 28.935 25.935L27 24Z" fill="#57755A"/>
</g>
<defs>
<clipPath id="clip0_254_111">
<rect width="36" height="36" fill="white"/>
</clipPath>
</defs>
</svg>
