<svg width="32" height="32" viewBox="0 0 32 32" fill="none" xmlns="http://www.w3.org/2000/svg">
<g clip-path="url(#clip0_254_111)">
<path d="M16 29.3335C17.4667 29.3335 18.6667 28.1335 18.6667 26.6668H13.3333C13.3333 28.1335 14.52 29.3335 16 29.3335ZM24 21.3335V14.6668C24 10.5735 21.8133 7.14683 18 6.24016V5.3335C18 4.22683 17.1067 3.3335 16 3.3335C14.8933 3.3335 14 4.22683 14 5.3335V6.24016C10.1733 7.14683 8.00001 10.5602 8.00001 14.6668V21.3335L6.28001 23.0535C5.44001 23.8935 6.02667 25.3335 7.21334 25.3335H24.7733C25.96 25.3335 26.56 23.8935 25.72 23.0535L24 21.3335Z" fill="#57755A"/>
</g>
<defs>
<clipPath id="clip0_254_111">
<rect width="32" height="32" fill="white"/>
</clipPath>
</defs>
</svg>
