<svg width="24" height="24" viewBox="0 0 24 24" fill="none" xmlns="http://www.w3.org/2000/svg">
<path d="M3.43302 17.3248L3.07902 19.7998C3.05714 19.9534 3.07132 20.11 3.12042 20.2572C3.16952 20.4044 3.2522 20.5381 3.36192 20.6479C3.47165 20.7576 3.6054 20.8403 3.7526 20.8894C3.89979 20.9385 4.0564 20.9526 4.21002 20.9308L6.68502 20.5768C7.06002 20.5238 8.00002 17.9998 8.00002 17.9998C8.00002 17.9998 8.47202 18.4048 8.66502 18.4658C9.07702 18.5958 9.47802 18.1918 9.61302 17.7818L10 16.0098C10 16.0098 10.577 16.3018 10.786 16.3448C11.052 16.3998 11.31 16.2358 11.493 16.0518C11.603 15.9422 11.6855 15.8082 11.734 15.6608L12 14.0098C12 14.0098 12.675 14.1968 12.906 14.2238C13.169 14.2538 13.425 14.1198 13.613 13.9308L14.751 12.7938C15.7143 13.1059 16.7451 13.1462 17.7298 12.9101C18.7145 12.674 19.615 12.1708 20.332 11.4558C21.3617 10.4234 21.94 9.02484 21.94 7.56676C21.94 6.10868 21.3617 4.71011 20.332 3.67776C19.2997 2.64807 17.9011 2.06982 16.443 2.06982C14.9849 2.06982 13.5864 2.64807 12.554 3.67776C11.8388 4.39468 11.3354 5.29514 11.0994 6.2799C10.8633 7.26466 10.9036 8.29548 11.216 9.25876L3.71502 16.7588C3.56191 16.9117 3.4629 17.1104 3.43302 17.3248ZM18.504 5.50576C19.0496 6.05293 19.3559 6.79408 19.3559 7.56676C19.3559 8.33943 19.0496 9.08059 18.504 9.62776L14.382 5.50576C14.9292 4.9602 15.6703 4.65384 16.443 4.65384C17.2157 4.65384 17.9569 4.9602 18.504 5.50576Z" fill="#618264"/>
</svg>
