<svg width="22" height="22" viewBox="0 0 22 22" fill="none" xmlns="http://www.w3.org/2000/svg">
<g clip-path="url(#clip0_166_107)">
<path d="M17.6275 13.9884L15.2992 13.7226C14.74 13.6584 14.19 13.8509 13.7958 14.2451L12.1092 15.9318C9.51501 14.6118 7.38834 12.4943 6.06834 9.89094L7.76417 8.19511C8.15834 7.80094 8.35084 7.25094 8.28667 6.69178L8.02084 4.38178C7.91084 3.45594 7.13167 2.75928 6.19667 2.75928H4.61084C3.57501 2.75928 2.71334 3.62094 2.77751 4.65678C3.26334 12.4851 9.52417 18.7368 17.3433 19.2226C18.3792 19.2868 19.2408 18.4251 19.2408 17.3893V15.8034C19.25 14.8776 18.5533 14.0984 17.6275 13.9884Z" fill="#618264"/>
</g>
<defs>
<clipPath id="clip0_166_107">
<rect width="22" height="22" fill="white"/>
</clipPath>
</defs>
</svg>
