<svg width="22" height="22" viewBox="0 0 22 22" fill="none" xmlns="http://www.w3.org/2000/svg">
<path opacity="0.4" d="M11 3.6665C12.8959 3.6665 14.6935 4.32428 16.2585 5.54206C17.8236 6.75006 19.1561 8.51984 20.113 10.7332C20.1845 10.9012 20.1845 11.0976 20.113 11.2576C18.1992 15.6843 14.7919 18.3332 11 18.3332H10.9911C7.20813 18.3332 3.80081 15.6843 1.88699 11.2576C1.81544 11.0976 1.81544 10.9012 1.88699 10.7332C3.80081 6.30561 7.20813 3.6665 10.9911 3.6665H11ZM11 7.44428C9.02357 7.44428 7.42276 9.03539 7.42276 10.9998C7.42276 12.9554 9.02357 14.5465 11 14.5465C12.9675 14.5465 14.5683 12.9554 14.5683 10.9998C14.5683 9.03539 12.9675 7.44428 11 7.44428Z" fill="#618264"/>
<path d="M13.2283 10.9971C13.2283 12.2149 12.2267 13.2105 11.0015 13.2105C9.76737 13.2105 8.76575 12.2149 8.76575 10.9971C8.76575 10.846 8.78363 10.7047 8.81046 10.5625H8.85518C9.84786 10.5625 10.6527 9.78024 10.6885 8.80157C10.7869 8.78468 10.8942 8.7749 11.0015 8.7749C12.2267 8.7749 13.2283 9.77046 13.2283 10.9971Z" fill="#618264"/>
</svg>
